<?xml version="1.0" encoding="utf-8"?>
<!-- Generator: Adobe Illustrator 16.0.0, SVG Export Plug-In . SVG Version: 6.00 Build 0)  -->
<!DOCTYPE svg PUBLIC "-//W3C//DTD SVG 1.1//EN" "http://www.w3.org/Graphics/SVG/1.1/DTD/svg11.dtd">
<svg version="1.1" id="Layer_1" xmlns="http://www.w3.org/2000/svg" xmlns:xlink="http://www.w3.org/1999/xlink" x="0px" y="0px"
	 width="1366px" height="170.54px" viewBox="4820.225 281.62 1366 170.54" enable-background="new 4820.225 281.62 1366 170.54"
	 xml:space="preserve">
<rect x="3016.833" y="-513.667" display="none" fill="#575756" width="4032" height="2112"/>
<g>
	<path fill="none" stroke="#FFFFFF" stroke-linecap="round" stroke-linejoin="round" stroke-miterlimit="2.6131" d="
		M5973.454,387.069c0.085,2.105,0.727,4.127,1.937,6.066c0.324-10.439,4.444-16.75,12.359-18.935
		c-4.446,7.662-5.958,15.061-1.034,21.911c0.34-13.695,6.908-24.38,23.872-27.92c16.962-3.541,39.625-0.165,58.94,7.933
		c6.593,2.838,13.191,5.672,19.779,8.516c0.837,0.153,1.691,0.252,2.554,0.28"/>
	
		<polygon fill-rule="evenodd" clip-rule="evenodd" fill="none" stroke="#FFFFFF" stroke-linecap="round" stroke-linejoin="round" stroke-miterlimit="2.6131" points="
		5998.725,323.543 6001.262,323.175 6001.262,325.715 5998.725,326.088 	"/>
	
		<polygon fill-rule="evenodd" clip-rule="evenodd" fill="none" stroke="#FFFFFF" stroke-linecap="round" stroke-linejoin="round" stroke-miterlimit="2.6131" points="
		5998.725,338.292 6001.262,337.301 6001.262,339.844 5998.725,340.833 	"/>
	
		<polygon fill-rule="evenodd" clip-rule="evenodd" fill="none" stroke="#FFFFFF" stroke-linecap="round" stroke-linejoin="round" stroke-miterlimit="2.6131" points="
		6009.142,308.371 6011.681,307.563 6011.681,310.102 6009.142,310.913 	"/>
	
		<polygon fill-rule="evenodd" clip-rule="evenodd" fill="none" stroke="#FFFFFF" stroke-linecap="round" stroke-linejoin="round" stroke-miterlimit="2.6131" points="
		6009.142,332.344 6011.681,331.999 6011.681,334.541 6009.142,334.887 	"/>
	
		<polygon fill-rule="evenodd" clip-rule="evenodd" fill="none" stroke="#FFFFFF" stroke-linecap="round" stroke-linejoin="round" stroke-miterlimit="2.6131" points="
		6009.142,341.633 6011.681,340.833 6011.681,343.375 6009.142,344.173 	"/>
	
		<polygon fill-rule="evenodd" clip-rule="evenodd" fill="none" stroke="#FFFFFF" stroke-linecap="round" stroke-linejoin="round" stroke-miterlimit="2.6131" points="
		6036.202,296.645 6038.741,296.113 6038.741,298.651 6036.202,299.188 	"/>
	
		<polygon fill-rule="evenodd" clip-rule="evenodd" fill="none" stroke="#FFFFFF" stroke-linecap="round" stroke-linejoin="round" stroke-miterlimit="2.6131" points="
		6036.202,323.88 6038.741,323.54 6038.741,326.082 6036.202,326.421 	"/>
	
		<polygon fill-rule="evenodd" clip-rule="evenodd" fill="none" stroke="#FFFFFF" stroke-linecap="round" stroke-linejoin="round" stroke-miterlimit="2.6131" points="
		6036.347,354.265 6038.886,355.74 6038.886,361.819 6036.347,360.342 	"/>
	
		<polygon fill-rule="evenodd" clip-rule="evenodd" fill="none" stroke="#FFFFFF" stroke-linecap="round" stroke-linejoin="round" stroke-miterlimit="2.6131" points="
		6014.967,353.876 6017.501,353.099 6017.501,358.206 6014.967,358.98 	"/>
	
		<polygon fill-rule="evenodd" clip-rule="evenodd" fill="none" stroke="#FFFFFF" stroke-linecap="round" stroke-linejoin="round" stroke-miterlimit="2.6131" points="
		5998.725,353.735 6001.262,352.991 6001.262,355.531 5998.725,356.274 	"/>
	
		<path fill-rule="evenodd" clip-rule="evenodd" fill="none" stroke="#FFFFFF" stroke-linecap="round" stroke-linejoin="round" stroke-miterlimit="2.6131" d="
		M5989.076,373.453c12.273-11.431,28.009-13.619,46.11-9.487"/>
	
		<polygon fill-rule="evenodd" clip-rule="evenodd" fill="none" stroke="#FFFFFF" stroke-linecap="round" stroke-linejoin="round" stroke-miterlimit="2.6131" points="
		6071.392,367.782 6073.931,368.548 6073.931,373.62 6071.392,372.85 	"/>
	
		<path fill-rule="evenodd" clip-rule="evenodd" fill="none" stroke="#FFFFFF" stroke-linecap="round" stroke-linejoin="round" stroke-miterlimit="2.6131" d="
		M6116.828,334.646c0,0-0.813-2.571,1.905-2.902C6118.733,331.744,6119.187,334.253,6116.828,334.646z"/>
	
		<path fill-rule="evenodd" clip-rule="evenodd" fill="none" stroke="#FFFFFF" stroke-linecap="round" stroke-linejoin="round" stroke-miterlimit="2.6131" d="
		M6119.005,338.55c0,0,1.326-1.212,2.742,0C6121.747,338.55,6120.151,339.909,6119.005,338.55z"/>
	
		<path fill-rule="evenodd" clip-rule="evenodd" fill="none" stroke="#FFFFFF" stroke-linecap="round" stroke-linejoin="round" stroke-miterlimit="2.6131" d="
		M6118.312,341.603c0,0-0.518,1.877,0.814,2.361C6119.126,343.964,6120.126,342.45,6118.312,341.603z"/>
	
		<path fill-rule="evenodd" clip-rule="evenodd" fill="none" stroke="#FFFFFF" stroke-linecap="round" stroke-linejoin="round" stroke-miterlimit="2.6131" d="
		M6113.723,340.213c0,0-1.634-0.938-2.058,1.691C6111.665,341.905,6114.294,341.816,6113.723,340.213z"/>
	
		<path fill-rule="evenodd" clip-rule="evenodd" fill="none" stroke="#FFFFFF" stroke-linecap="round" stroke-linejoin="round" stroke-miterlimit="2.6131" d="
		M6113.179,336.098c0,0-1.299,1.574-2.205-0.271C6110.974,335.827,6112.362,334.887,6113.179,336.098z"/>
	
		<path fill-rule="evenodd" clip-rule="evenodd" fill="none" stroke="#FFFFFF" stroke-linecap="round" stroke-linejoin="round" stroke-miterlimit="2.6131" d="
		M6078.912,373.035c0,0,2.354,0.056,4.741,0.876v-3.994l-1.148-0.15l4.438-3.327l4.074,4.536l-1.838-0.331l0.176,6.44"/>
	
		<path fill-rule="evenodd" clip-rule="evenodd" fill="none" stroke="#FFFFFF" stroke-linecap="round" stroke-linejoin="round" stroke-miterlimit="2.6131" d="
		M6078.883,375.116c0,0,7.88,0.671,14.819,3.301"/>
	
		<polygon fill-rule="evenodd" clip-rule="evenodd" fill="none" stroke="#FFFFFF" stroke-linecap="round" stroke-linejoin="round" stroke-miterlimit="2.6131" points="
		6085.431,371.495 6087.393,371.824 6087.393,375.116 6085.431,374.793 	"/>
	
		<polyline fill-rule="evenodd" clip-rule="evenodd" fill="none" stroke="#FFFFFF" stroke-linecap="round" stroke-linejoin="round" stroke-miterlimit="2.6131" points="
		5932.442,381.728 5932.386,358.599 5924.388,365.216 5923.235,363.701 5946.436,343.915 5954.497,349.498 5954.497,345.979 
		5952.737,345.979 5957.218,341.608 5961.642,345.917 5959.401,345.857 5959.339,352.047 5971.031,361.455 5970.484,362.73 
		5965.579,360.182 5965.638,382.516 	"/>
	
		<path fill-rule="evenodd" clip-rule="evenodd" fill="none" stroke="#FFFFFF" stroke-linecap="round" stroke-linejoin="round" stroke-miterlimit="2.6131" d="
		M5976.021,373.898c0,0-0.035-1.584-1.817-1.721c-1.786-0.138-3.398,0.523-4.475-1.563c0,0,1.62,0.521,2.775,0.137
		c0,0,1.727-0.716,2.743-0.47c1.01,0.247-0.307-2.885-2.938-2.829c0,0-3.458-0.025-3.894-2.524c0,0,1.564,1.646,3.784,0.602
		c0,0,2.165-0.907,3.512,0.11c0,0,0.051-1.483,0.769-2.391c0,0-1.497-0.618-1.946-0.493c-0.455,0.12-3.428-0.412-3.294-4.976
		c0,0,1.866,2.434,3.538,2.642c1.673,0.204,2.085-0.332,3.017,1.013c0,0,0-0.878,0.576-1.318c0,0-4.58-1.48-3.729-7.142
		c0,0,0.385,2.692,2.304,2.856c0,0,2.33,0.357,3.594,2.007c0,0,0.656-0.771,1.146-0.934c0,0-1.598-3.298-0.846-4.809
		c0.752-1.513,1.297-2.882,1.48-4.094c0.15-0.999,0.577,2.227-0.025,3.652c0,0-0.826,2.227,2.604,3.544c0,0,0.709-0.354,1.807-0.383
		c0,0-0.168-2.999,0.467-4.066c0.634-1.066,1.835-1.729,2.029-2.993c0,0,0.383,1.536-0.302,3.733c0,0-0.468,2.556,1.128,2.997
		c0,0,1.258-0.082,1.477,0.026c0,0-0.248-2.582,1.619-3.872c0,0,1.205-1.047,1.18-2.116c0,0-0.111,2.938-0.822,4.23
		c-0.713,1.29-0.055,2.443,1.945,2.473"/>
	
		<rect x="5940.235" y="358.231" fill-rule="evenodd" clip-rule="evenodd" fill="none" stroke="#FFFFFF" stroke-linecap="round" stroke-linejoin="round" stroke-miterlimit="2.6131" width="5.399" height="5.408"/>
	
		<rect x="5949.2" y="358.231" fill-rule="evenodd" clip-rule="evenodd" fill="none" stroke="#FFFFFF" stroke-linecap="round" stroke-linejoin="round" stroke-miterlimit="2.6131" width="5.396" height="5.408"/>
	
		<rect x="5940.235" y="367.64" fill-rule="evenodd" clip-rule="evenodd" fill="none" stroke="#FFFFFF" stroke-linecap="round" stroke-linejoin="round" stroke-miterlimit="2.6131" width="5.399" height="5.405"/>
	
		<rect x="5949.2" y="367.64" fill-rule="evenodd" clip-rule="evenodd" fill="none" stroke="#FFFFFF" stroke-linecap="round" stroke-linejoin="round" stroke-miterlimit="2.6131" width="5.396" height="5.405"/>
	
		<line fill-rule="evenodd" clip-rule="evenodd" fill="none" stroke="#FFFFFF" stroke-linecap="round" stroke-linejoin="round" stroke-miterlimit="2.6131" x1="6046.062" y1="292.455" x2="6046.183" y2="319.829"/>
	
		<line fill-rule="evenodd" clip-rule="evenodd" fill="none" stroke="#FFFFFF" stroke-linecap="round" stroke-linejoin="round" stroke-miterlimit="2.6131" x1="6047.64" y1="339.164" x2="6047.763" y2="354.363"/>
	
		<line fill-rule="evenodd" clip-rule="evenodd" fill="none" stroke="#FFFFFF" stroke-linecap="round" stroke-linejoin="round" stroke-miterlimit="2.6131" x1="6014.317" y1="305.821" x2="6014.442" y2="329.409"/>
	
		<line fill-rule="evenodd" clip-rule="evenodd" fill="none" stroke="#FFFFFF" stroke-linecap="round" stroke-linejoin="round" stroke-miterlimit="2.6131" x1="6006.194" y1="330.58" x2="6006.315" y2="354.167"/>
	
		<line fill-rule="evenodd" clip-rule="evenodd" fill="none" stroke="#FFFFFF" stroke-linecap="round" stroke-linejoin="round" stroke-miterlimit="2.6131" x1="6014.468" y1="343.42" x2="6014.585" y2="352.173"/>
	
		<path fill-rule="evenodd" clip-rule="evenodd" fill="none" stroke="#FFFFFF" stroke-linecap="round" stroke-linejoin="round" stroke-miterlimit="2.6131" d="
		M5885.638,359c1.43,0,2.592-1.166,2.592-2.597c0-1.432-1.162-2.6-2.592-2.6c-1.426,0-2.592,1.168-2.592,2.6
		C5883.046,357.833,5884.212,359,5885.638,359z"/>
	
		<path fill-rule="evenodd" clip-rule="evenodd" fill="none" stroke="#FFFFFF" stroke-linecap="round" stroke-linejoin="round" stroke-miterlimit="2.6131" d="
		M5891.226,348.775c-1.184,0.849-1.902,2.778-0.707,2.929C5891.712,351.859,5890.995,349.719,5891.226,348.775z"/>
	
		<circle fill-rule="evenodd" clip-rule="evenodd" fill="none" stroke="#FFFFFF" stroke-linecap="round" stroke-linejoin="round" stroke-miterlimit="2.6131" cx="5866.343" cy="343.477" r="0.718"/>
	
		<path fill-rule="evenodd" clip-rule="evenodd" fill="none" stroke="#FFFFFF" stroke-linecap="round" stroke-linejoin="round" stroke-miterlimit="2.6131" d="
		M5829.553,332.743c1.323-1.243,3.06-1.223,4.813-1.158C5832.876,333.5,5831.024,333.807,5829.553,332.743z"/>
	
		<path fill-rule="evenodd" clip-rule="evenodd" fill="none" stroke="#FFFFFF" stroke-linecap="round" stroke-linejoin="round" stroke-miterlimit="2.6131" d="
		M5826.827,324.446c1.415-2.271,3.389-1.358,5.549-2.501C5831.093,324.063,5829.28,324.977,5826.827,324.446z"/>
	
		<path fill-rule="evenodd" clip-rule="evenodd" fill="none" stroke="#FFFFFF" stroke-linecap="round" stroke-linejoin="round" stroke-miterlimit="2.6131" d="
		M5821.692,317.17c-0.348-3.091,3.791-2.545,4.535-4.91C5825.905,315.834,5823.63,316.235,5821.692,317.17z"/>
	
		<path fill-rule="evenodd" clip-rule="evenodd" fill="none" stroke="#FFFFFF" stroke-linecap="round" stroke-linejoin="round" stroke-miterlimit="2.6131" d="
		M5814.43,312.817c-0.456-1.449-0.27-2.727,1.063-3.707c0.714-0.516,1.291-1.274,1.76-2.226
		C5816.914,311.457,5815.781,310.709,5814.43,312.817z"/>
	
		<path fill-rule="evenodd" clip-rule="evenodd" fill="none" stroke="#FFFFFF" stroke-linecap="round" stroke-linejoin="round" stroke-miterlimit="2.6131" d="
		M5805.501,312.213c-1.384-0.823-1.46-2.642-1.063-4.82c0.186-0.836,0.373-1.666,0.557-2.501
		C5804.829,307.85,5807.102,310.391,5805.501,312.213z"/>
	
		<path fill-rule="evenodd" clip-rule="evenodd" fill="none" stroke="#FFFFFF" stroke-linecap="round" stroke-linejoin="round" stroke-miterlimit="2.6131" d="
		M5797.827,315.551c-1.406-1.625,0.699-3.415-3.379-7.463c0.553,2.021-0.072,4.061,1.064,5.886
		C5796.04,314.993,5796.81,315.517,5797.827,315.551z"/>
	
		<path fill-rule="evenodd" clip-rule="evenodd" fill="none" stroke="#FFFFFF" stroke-linecap="round" stroke-linejoin="round" stroke-miterlimit="2.6131" d="
		M5788.989,322.825c-0.645-1.954-2.98-1.797-5.363-1.575C5785.224,322.855,5786.54,323.942,5788.989,322.825z"/>
	<path fill="none" stroke="#FFFFFF" stroke-linecap="round" stroke-linejoin="round" stroke-miterlimit="10" d="M5519.75,402.532"/>
	<path fill="none" stroke="#FFFFFF" stroke-linecap="round" stroke-linejoin="round" stroke-miterlimit="10" d="M5502.283,387.424
		c0.992,6.544,6.159,11.721,12.688,12.715v2.393h4.778"/>
	<path fill="none" stroke="#FFFFFF" stroke-linecap="round" stroke-linejoin="round" stroke-miterlimit="10" d="M5608.549,354.579
		c0,0,0.072,11.548-3.981,17.829c-2.463,3.821-4.646,9.049-2.389,18.027h17.66c0,0,0.926-12.771-3.189-17.096
		c0,0-4.845-3.924-5.379-11.974C5611.271,361.366,5611.008,354.579,5608.549,354.579z"/>
	<path fill="none" stroke="#FFFFFF" stroke-linecap="round" stroke-linejoin="round" stroke-miterlimit="10" d="M5624.633,401.09
		h-82.013v-2.443h40.257v-3.107h-35.938"/>
	<path fill="none" stroke="#FFFFFF" stroke-linecap="round" stroke-linejoin="round" stroke-miterlimit="10" d="M5624.633,401.09"/>
	<path fill="none" stroke="#FFFFFF" stroke-linecap="round" stroke-linejoin="round" stroke-miterlimit="10" d="M5632.838,413.532"
		/>
	
		<line fill="none" stroke="#FFFFFF" stroke-linecap="round" stroke-linejoin="round" stroke-miterlimit="10" x1="5649.815" y1="408.799" x2="5648.282" y2="403.045"/>
	<path fill="none" stroke="#FFFFFF" stroke-linecap="round" stroke-linejoin="round" stroke-miterlimit="10" d="M5438.464,361.926
		c0,0,2.398,14.433,8.551,14.132c0,0,3.3,1.202,7.502-15.184C5454.517,360.875,5443.565,361.026,5438.464,361.926z"/>
	<path fill="none" stroke="#FFFFFF" stroke-linecap="round" stroke-linejoin="round" stroke-miterlimit="10" d="M5431.71,356.064
		c0,0,20.858-7.965,27.459-7.365l-0.602,11.124c0,0-16.951-0.603-24.756,1.504L5431.71,356.064z"/>
	<path fill="none" stroke="#FFFFFF" stroke-linecap="round" stroke-linejoin="round" stroke-miterlimit="10" d="M5450.091,369.743
		c0,2.161-1.379,3.906-3.076,3.906s-3.076-1.745-3.076-3.906c0-2.157,1.379-3.905,3.076-3.905S5450.091,367.585,5450.091,369.743z"
		/>
	
		<ellipse fill="none" stroke="#FFFFFF" stroke-linecap="round" stroke-linejoin="round" stroke-miterlimit="10" cx="5498.476" cy="342.383" rx="3.549" ry="4.512"/>
	<path fill="none" stroke="#FFFFFF" stroke-linecap="round" stroke-linejoin="round" stroke-miterlimit="10" d="M5554.275,351.704
		c0,1.993-1.269,3.61-2.833,3.61c-1.57,0-2.842-1.617-2.842-3.61c0-1.992,1.271-3.604,2.842-3.604
		C5553.007,348.099,5554.275,349.711,5554.275,351.704z"/>
	<path fill="none" stroke="#FFFFFF" stroke-linecap="round" stroke-linejoin="round" stroke-miterlimit="10" d="M5462.007,375.905
		c0,1.996-1.273,3.608-2.838,3.608c-1.568,0-2.84-1.612-2.84-3.608c0-1.988,1.271-3.604,2.84-3.604
		C5460.733,372.3,5462.007,373.917,5462.007,375.905z"/>
	<path fill="none" stroke="#FFFFFF" stroke-linecap="round" stroke-linejoin="round" stroke-miterlimit="10" d="M5472.358,371.851
		c0,1.989-1.271,3.607-2.838,3.607c-1.568,0-2.841-1.618-2.841-3.607c0-1.996,1.272-3.612,2.841-3.612
		C5471.087,368.239,5472.358,369.855,5472.358,371.851z"/>
	<path fill="none" stroke="#FFFFFF" stroke-linecap="round" stroke-linejoin="round" stroke-miterlimit="10" d="M5481.51,374.553
		c0,1.99-1.271,3.609-2.839,3.609c-1.569,0-2.835-1.619-2.835-3.609c0-1.989,1.266-3.607,2.835-3.607
		C5480.238,370.946,5481.51,372.564,5481.51,374.553z"/>
	
		<ellipse fill="none" stroke="#FFFFFF" stroke-linecap="round" stroke-linejoin="round" stroke-miterlimit="10" cx="5487.674" cy="379.964" rx="2.837" ry="3.606"/>
	<path fill="none" stroke="#FFFFFF" stroke-linecap="round" stroke-linejoin="round" stroke-miterlimit="10" d="M5567.479,370.946
		c0,1.996-1.27,3.607-2.836,3.607s-2.842-1.611-2.842-3.607c0-1.991,1.275-3.606,2.842-3.606S5567.479,368.955,5567.479,370.946z"/>
	
		<ellipse fill="none" stroke="#FFFFFF" stroke-linecap="round" stroke-linejoin="round" stroke-miterlimit="10" cx="5595.7" cy="362.077" rx="4.037" ry="5.133"/>
	
		<ellipse fill="none" stroke="#FFFFFF" stroke-linecap="round" stroke-linejoin="round" stroke-miterlimit="10" cx="5627.056" cy="362.83" rx="4.039" ry="5.133"/>
	<path fill="none" stroke="#FFFFFF" stroke-linecap="round" stroke-linejoin="round" stroke-miterlimit="10" d="M5570.771,348.908
		c-1.932,1.566-4.5,1.597-5.73,0.067s-0.658-4.034,1.275-5.601c1.934-1.563,4.5-1.592,5.732-0.063
		S5572.707,347.346,5570.771,348.908z"/>
	<polygon fill="none" stroke="#FFFFFF" stroke-linecap="round" stroke-linejoin="round" stroke-miterlimit="10" points="
		5638.612,386.28 5637.857,388.987 5641.163,389.886 	"/>
	<polygon fill="none" stroke="#FFFFFF" stroke-linecap="round" stroke-linejoin="round" stroke-miterlimit="10" points="
		5641.911,384.026 5643.86,384.026 5643.11,387.63 	"/>
	<polygon fill="none" stroke="#FFFFFF" stroke-linecap="round" stroke-linejoin="round" stroke-miterlimit="10" points="
		5650.314,392.446 5649.112,395.901 5652.108,394.698 	"/>
	<polygon fill="none" stroke="#FFFFFF" stroke-linecap="round" stroke-linejoin="round" stroke-miterlimit="10" points="
		5652.263,401.764 5655.265,403.418 5651.513,403.571 	"/>
	<g>
		
			<path fill-rule="evenodd" clip-rule="evenodd" fill="none" stroke="#FFFFFF" stroke-linecap="round" stroke-linejoin="round" stroke-miterlimit="2.6131" d="
			M5074.576,426.084h17.573c1.617,0,2.939,1.451,2.939,3.215v18.371c0,1.769-1.322,3.218-2.939,3.218h-17.573
			c-1.616,0-2.942-1.449-2.942-3.218v-18.371C5071.634,427.536,5072.96,426.084,5074.576,426.084z"/>
		<path fill="none" stroke="#FFFFFF" stroke-linecap="round" stroke-linejoin="round" stroke-miterlimit="2.6131" d="
			M5135.099,396.105c-0.697-0.298-1.41-0.243-2.135,0.159c-0.723,0.406-1.43,1.414-2.127,3.038c-0.635,1.472-0.845,2.606-0.641,3.41
			c0.212,0.805,0.664,1.355,1.352,1.654c0.705,0.302,1.424,0.252,2.148-0.156c0.725-0.399,1.434-1.405,2.125-3.015
			c0.637-1.486,0.854-2.627,0.639-3.425C5136.251,396.96,5135.794,396.405,5135.099,396.105z"/>
		<path fill="none" stroke="#FFFFFF" stroke-linecap="round" stroke-linejoin="round" stroke-miterlimit="2.6131" d="
			M5142.13,411.686c-0.698-0.302-1.411-0.249-2.137,0.153c-0.723,0.405-1.431,1.42-2.128,3.04c-0.636,1.469-0.845,2.605-0.642,3.412
			c0.213,0.803,0.667,1.354,1.353,1.646c0.707,0.307,1.425,0.253,2.148-0.149c0.725-0.399,1.438-1.407,2.127-3.016
			c0.636-1.481,0.852-2.627,0.638-3.428C5143.279,412.539,5142.824,411.987,5142.13,411.686z"/>
		
			<rect x="5160.093" y="392.682" fill-rule="evenodd" clip-rule="evenodd" fill="none" stroke="#FFFFFF" stroke-linecap="round" stroke-linejoin="round" stroke-miterlimit="2.6131" width="1.072" height="3.4"/>
		
			<polygon fill-rule="evenodd" clip-rule="evenodd" fill="none" stroke="#FFFFFF" stroke-linecap="round" stroke-linejoin="round" stroke-miterlimit="2.6131" points="
			5177.854,397.445 5178.612,398.21 5176.216,400.612 5175.454,399.849 		"/>
		
			<polygon fill-rule="evenodd" clip-rule="evenodd" fill="none" stroke="#FFFFFF" stroke-linecap="round" stroke-linejoin="round" stroke-miterlimit="2.6131" points="
			5148.604,397.454 5149.534,396.916 5151.229,399.862 5150.3,400.4 		"/>
		
			<rect x="5141.745" y="422.428" transform="matrix(0.2271 0.9739 -0.9739 0.2271 4387.4336 -4680.106)" fill-rule="evenodd" clip-rule="evenodd" fill="none" stroke="#FFFFFF" stroke-linecap="round" stroke-linejoin="round" stroke-miterlimit="2.6131" width="1.075" height="3.39"/>
		
			<path fill-rule="evenodd" clip-rule="evenodd" fill="none" stroke="#FFFFFF" stroke-linecap="round" stroke-linejoin="round" stroke-miterlimit="2.6131" d="
			M5010.283,410.911c1.117,0,2.027-0.908,2.027-2.027c0-1.118-0.91-2.027-2.027-2.027c-1.116,0-2.023,0.909-2.023,2.027
			C5008.26,410.002,5009.167,410.911,5010.283,410.911z"/>
		
			<path fill-rule="evenodd" clip-rule="evenodd" fill="none" stroke="#FFFFFF" stroke-linecap="round" stroke-linejoin="round" stroke-miterlimit="2.6131" d="
			M5017.728,402.381c2.664,0,4.837-2.177,4.837-4.85c0-2.671-2.173-4.85-4.837-4.85c-2.666,0-4.837,2.179-4.837,4.85
			C5012.891,400.205,5015.062,402.381,5017.728,402.381z"/>
		
			<path fill-rule="evenodd" clip-rule="evenodd" fill="none" stroke="#FFFFFF" stroke-linecap="round" stroke-linejoin="round" stroke-miterlimit="2.6131" d="
			M5077.831,434.916c1.658,0,3.008-1.355,3.008-3.016c0-1.654-1.35-3.01-3.008-3.01c-1.654,0-3.006,1.355-3.006,3.01
			C5074.825,433.56,5076.177,434.916,5077.831,434.916z"/>
		
			<circle fill-rule="evenodd" clip-rule="evenodd" fill="none" stroke="#FFFFFF" stroke-linecap="round" stroke-linejoin="round" stroke-miterlimit="2.6131" cx="5091.918" cy="433.862" r="0.5"/>
		
			<rect x="5091.176" y="434.701" fill-rule="evenodd" clip-rule="evenodd" fill="none" stroke="#FFFFFF" stroke-linecap="round" stroke-linejoin="round" stroke-miterlimit="2.6131" width="1.485" height="3.231"/>
	</g>
	
		<path fill-rule="evenodd" clip-rule="evenodd" fill="none" stroke="#FFFFFF" stroke-linecap="round" stroke-linejoin="round" stroke-miterlimit="2.6131" d="
		M5253.933,354.897h10.773c0.668,0,1.215,0.549,1.215,1.22v10.795c0,0.671-0.547,1.22-1.215,1.22h-10.773
		c-0.668,0-1.215-0.549-1.215-1.22v-10.795C5252.718,355.446,5253.265,354.897,5253.933,354.897z"/>
	
		<path fill-rule="evenodd" clip-rule="evenodd" fill="none" stroke="#FFFFFF" stroke-linecap="round" stroke-linejoin="round" stroke-miterlimit="2.6131" d="
		M5254.093,371.995h10.455c0.234,0,0.424,0.19,0.424,0.423v1.903c0,0.232-0.189,0.422-0.424,0.422h-10.455
		c-0.236,0-0.424-0.189-0.424-0.422v-1.903C5253.669,372.185,5253.856,371.995,5254.093,371.995z"/>
	
		<path fill-rule="evenodd" clip-rule="evenodd" fill="none" stroke="#FFFFFF" stroke-linecap="round" stroke-linejoin="round" stroke-miterlimit="2.6131" d="
		M5254.093,376.966h10.455c0.234,0,0.424,0.19,0.424,0.425v1.904c0,0.234-0.189,0.423-0.424,0.423h-10.455
		c-0.236,0-0.424-0.188-0.424-0.423v-1.904C5253.669,377.157,5253.856,376.966,5254.093,376.966z"/>
	
		<path fill-rule="evenodd" clip-rule="evenodd" fill="none" stroke="#FFFFFF" stroke-linecap="round" stroke-linejoin="round" stroke-miterlimit="2.6131" d="
		M5386.889,329.471c4.192,0,7.593,3.408,7.593,7.61c0,0.737-0.104,1.454-0.303,2.132l8.293,3.311l-0.702,1.772l-8.349-3.335
		c-1.32,2.232-3.756,3.731-6.532,3.731c-4.192,0-7.597-3.411-7.597-7.611C5379.292,332.879,5382.696,329.471,5386.889,329.471z"/>
	
		<path fill-rule="evenodd" clip-rule="evenodd" fill="none" stroke="#FFFFFF" stroke-linecap="round" stroke-linejoin="round" stroke-miterlimit="2.6131" d="
		M5386.889,340.135c1.68,0,3.046-1.374,3.046-3.054c0-1.682-1.366-3.055-3.046-3.055c-1.676,0-3.046,1.373-3.046,3.055
		C5383.843,338.761,5385.213,340.135,5386.889,340.135z"/>
	
		<path fill-rule="evenodd" clip-rule="evenodd" fill="none" stroke="#FFFFFF" stroke-linecap="round" stroke-linejoin="round" stroke-miterlimit="2.6131" d="
		M5326.647,354.833h-7.588c0-4.506,3.397-8.162,7.588-8.162c4.191,0,7.588,3.656,7.588,8.162H5326.647z"/>
	
		<path fill-rule="evenodd" clip-rule="evenodd" fill="none" stroke="#FFFFFF" stroke-linecap="round" stroke-linejoin="round" stroke-miterlimit="2.6131" d="
		M5298.089,373.795c1.34,0,2.432-1.095,2.432-2.436c0-1.344-1.092-2.437-2.432-2.437c-1.338,0-2.429,1.093-2.429,2.437
		C5295.66,372.701,5296.751,373.795,5298.089,373.795z"/>
	
		<path fill-rule="evenodd" clip-rule="evenodd" fill="none" stroke="#FFFFFF" stroke-linecap="round" stroke-linejoin="round" stroke-miterlimit="2.6131" d="
		M5311.372,371.676c0.627,0,1.136-0.512,1.136-1.137c0-0.627-0.509-1.141-1.136-1.141c-0.624,0-1.135,0.514-1.135,1.141
		C5310.237,371.165,5310.748,371.676,5311.372,371.676z"/>
	
		<path fill-rule="evenodd" clip-rule="evenodd" fill="none" stroke="#FFFFFF" stroke-linecap="round" stroke-linejoin="round" stroke-miterlimit="2.6131" d="
		M5236.896,354.793c0.514,0,0.928-0.416,0.928-0.926s-0.414-0.927-0.928-0.927c-0.508,0-0.922,0.417-0.922,0.927
		S5236.388,354.793,5236.896,354.793z"/>
	
		<polyline fill-rule="evenodd" clip-rule="evenodd" fill="none" stroke="#FFFFFF" stroke-linecap="round" stroke-linejoin="round" stroke-miterlimit="2.6131" points="
		5231.863,367.168 5231.863,364.334 5232.968,364.334 5232.968,367.168 	"/>
	
		<path fill-rule="evenodd" clip-rule="evenodd" fill="none" stroke="#FFFFFF" stroke-linecap="round" stroke-linejoin="round" stroke-miterlimit="2.6131" d="
		M5372.32,384.03c1.436,0,2.605-1.168,2.605-2.605c0-1.444-1.17-2.615-2.605-2.615c-1.438,0-2.608,1.171-2.608,2.615
		C5369.712,382.862,5370.882,384.03,5372.32,384.03z"/>
	
		<path fill-rule="evenodd" clip-rule="evenodd" fill="none" stroke="#FFFFFF" stroke-linecap="round" stroke-linejoin="round" stroke-miterlimit="2.6131" d="
		M5391.017,384.238c1.439,0,2.609-1.171,2.609-2.61c0-1.442-1.17-2.615-2.609-2.615c-1.433,0-2.605,1.173-2.605,2.615
		C5388.411,383.067,5389.584,384.238,5391.017,384.238z"/>
	
		<path fill-rule="evenodd" clip-rule="evenodd" fill="none" stroke="#FFFFFF" stroke-linecap="round" stroke-linejoin="round" stroke-miterlimit="2.6131" d="
		M5200.155,368.515h14.119c1.223,0,2.222,1.002,2.222,2.226v5.324c0,1.225-0.999,2.228-2.222,2.228h-1.559
		c-2.898,0.229-4.684,1.893-5.122,5.287c-1.511-2.109-3.872-1.836-7.438-1.317c-1.211,0.173-2.221-1.004-2.221-2.229v-9.293
		C5197.935,369.517,5198.935,368.515,5200.155,368.515z"/>
	
		<path fill-rule="evenodd" clip-rule="evenodd" fill="none" stroke="#FFFFFF" stroke-linecap="round" stroke-linejoin="round" stroke-miterlimit="2.6131" d="
		M5308.918,366.32h3.539c1.771,0,3.29,1.462,3.47,3.226c0.262,2.589,0.74,4.51-2.889,4.51c-1.775,0-3.223,1.456-3.223,3.233v8.252
		h-2.683c-0.792,0-1.437-0.649-1.437-1.436v-14.284C5305.696,368.048,5307.146,366.32,5308.918,366.32z"/>
	
		<line fill-rule="evenodd" clip-rule="evenodd" fill="none" stroke="#FFFFFF" stroke-linecap="round" stroke-linejoin="round" stroke-miterlimit="2.6131" x1="5262.491" y1="338.705" x2="5268.721" y2="336.431"/>
	
		<line fill-rule="evenodd" clip-rule="evenodd" fill="none" stroke="#FFFFFF" stroke-linecap="round" stroke-linejoin="round" stroke-miterlimit="2.6131" x1="5262.491" y1="341.22" x2="5268.721" y2="338.946"/>
	
		<line fill-rule="evenodd" clip-rule="evenodd" fill="none" stroke="#FFFFFF" stroke-linecap="round" stroke-linejoin="round" stroke-miterlimit="2.6131" x1="5262.491" y1="344.712" x2="5268.721" y2="342.436"/>
	
		<line fill-rule="evenodd" clip-rule="evenodd" fill="none" stroke="#FFFFFF" stroke-linecap="round" stroke-linejoin="round" stroke-miterlimit="2.6131" x1="5262.437" y1="347.623" x2="5268.67" y2="345.348"/>
	
		<line fill-rule="evenodd" clip-rule="evenodd" fill="none" stroke="#FFFFFF" stroke-linecap="round" stroke-linejoin="round" stroke-miterlimit="2.6131" x1="5262.437" y1="349.159" x2="5268.67" y2="346.879"/>
	
		<line fill-rule="evenodd" clip-rule="evenodd" fill="none" stroke="#FFFFFF" stroke-linecap="round" stroke-linejoin="round" stroke-miterlimit="2.6131" x1="5262.437" y1="350.374" x2="5268.67" y2="348.1"/>
	
		<line fill-rule="evenodd" clip-rule="evenodd" fill="none" stroke="#FFFFFF" stroke-linecap="round" stroke-linejoin="round" stroke-miterlimit="2.6131" x1="5272.503" y1="343.278" x2="5277.261" y2="341.541"/>
	
		<line fill-rule="evenodd" clip-rule="evenodd" fill="none" stroke="#FFFFFF" stroke-linecap="round" stroke-linejoin="round" stroke-miterlimit="2.6131" x1="5272.503" y1="344.338" x2="5277.261" y2="342.6"/>
	
		<line fill-rule="evenodd" clip-rule="evenodd" fill="none" stroke="#FFFFFF" stroke-linecap="round" stroke-linejoin="round" stroke-miterlimit="2.6131" x1="5272.503" y1="345.398" x2="5277.261" y2="343.66"/>
	
		<line fill-rule="evenodd" clip-rule="evenodd" fill="none" stroke="#FFFFFF" stroke-linecap="round" stroke-linejoin="round" stroke-miterlimit="2.6131" x1="5272.503" y1="349.682" x2="5277.261" y2="347.944"/>
	
		<line fill-rule="evenodd" clip-rule="evenodd" fill="none" stroke="#FFFFFF" stroke-linecap="round" stroke-linejoin="round" stroke-miterlimit="2.6131" x1="5269.562" y1="355.714" x2="5275.485" y2="353.553"/>
	
		<line fill-rule="evenodd" clip-rule="evenodd" fill="none" stroke="#FFFFFF" stroke-linecap="round" stroke-linejoin="round" stroke-miterlimit="2.6131" x1="5269.562" y1="357.515" x2="5275.485" y2="355.352"/>
	<path fill="#6A6B69" stroke="#FFFFFF" stroke-linecap="round" stroke-linejoin="round" stroke-miterlimit="2.6131" d="
		M4948.983,473.929"/>
</g>
</svg>
